<svg class="c-logoSvg" xmlns="http://www.w3.org/2000/svg" width="69.177" height="51.186" viewBox="0 0 69.177 51.186">
  <g transform="translate(-7.323 -42.498)">
    <path class="c-logoSvg__text" d="M-21.978,0H-25V-6.162h-5.654V0h-3.027V-14.277h3.027v5.6H-25v-5.6h3.018Zm3.6,0V-14.277h3.027V0Zm9.648-7.939h.977A3.736,3.736,0,0,0-5.63-8.418a1.708,1.708,0,0,0,.684-1.5,1.562,1.562,0,0,0-.7-1.445,4.237,4.237,0,0,0-2.163-.43h-.918Zm0,2.461V0h-3.027V-14.277h4.16a7.12,7.12,0,0,1,4.307,1.06A3.782,3.782,0,0,1-1.89-10a3.788,3.788,0,0,1-.693,2.241A4.588,4.588,0,0,1-4.546-6.221Q-1.323-1.406-.347,0H-3.706L-7.114-5.479Zm23.135-1.68a7.747,7.747,0,0,1-1.758,5.449A6.517,6.517,0,0,1,7.612.2a6.517,6.517,0,0,1-5.039-1.9A7.778,7.778,0,0,1,.815-7.178a7.672,7.672,0,0,1,1.763-5.444A6.592,6.592,0,0,1,7.632-14.5a6.5,6.5,0,0,1,5.034,1.895A7.767,7.767,0,0,1,14.409-7.158Zm-10.42,0a5.964,5.964,0,0,0,.908,3.6A3.178,3.178,0,0,0,7.612-2.344q3.623,0,3.623-4.814t-3.6-4.824a3.2,3.2,0,0,0-2.725,1.216A5.939,5.939,0,0,0,3.989-7.158ZM28.853,0H25.415l-3.74-6.016L20.4-5.1V0H17.368V-14.277H20.4v6.533l1.191-1.68,3.867-4.854h3.359l-4.98,6.318Zm1.8,0V-14.277h3.027V0Z" transform="translate(41 57)" fill="#fff"/>
    <path class="c-logoSvg__text" d="M-25.326,0l-.911-2.991h-4.58L-31.728,0H-34.6l4.434-12.616h3.257L-22.455,0Zm-1.547-5.225q-1.263-4.065-1.422-4.6t-.228-.842q-.284,1.1-1.624,5.44ZM-15.555,0-18.58-9.857h-.077q.163,3.008.163,4.013V0h-2.38V-12.564h3.627l2.973,9.608h.052l3.154-9.608h3.627V0H-9.926V-5.947q0-.421.013-.971T-9.8-9.84h-.077L-13.114,0ZM3.412,0,2.5-2.991H-2.08L-2.991,0h-2.87l4.434-12.616H1.83L6.282,0ZM1.865-5.225Q.6-9.29.443-9.823t-.228-.842q-.284,1.1-1.624,5.44ZM19.009,0H15.623L10.158-9.5H10.08q.163,2.518.163,3.592V0H7.863V-12.564h3.36l5.457,9.41h.06q-.129-2.449-.129-3.463v-5.947h2.4ZM33.576-6.3a6.818,6.818,0,0,1-1.547,4.8A5.735,5.735,0,0,1,27.595.172,5.735,5.735,0,0,1,23.16-1.5a6.844,6.844,0,0,1-1.547-4.812,6.751,6.751,0,0,1,1.551-4.791,5.8,5.8,0,0,1,4.447-1.654,5.72,5.72,0,0,1,4.43,1.667A6.835,6.835,0,0,1,33.576-6.3Zm-9.17,0a5.248,5.248,0,0,0,.8,3.171,2.8,2.8,0,0,0,2.389,1.066q3.188,0,3.188-4.237t-3.171-4.245a2.815,2.815,0,0,0-2.4,1.07A5.226,5.226,0,0,0,24.406-6.3Z" transform="translate(42 74)" fill="#fff"/>
    <path class="c-logoSvg__text" d="M1.55-6.539h.567L1.84-5.222A4.22,4.22,0,0,1,3.074-6.245,2.934,2.934,0,0,1,4.5-6.64a2.034,2.034,0,0,1,1.26.389,2.521,2.521,0,0,1,.794,1.017,3.318,3.318,0,0,1,.277,1.356A3.926,3.926,0,0,1,6.539-2.4a4.351,4.351,0,0,1-.794,1.287,3.988,3.988,0,0,1-1.166.9,3.039,3.039,0,0,1-1.4.339A1.983,1.983,0,0,1,1.852-.32a2.579,2.579,0,0,1-.769-1.086L.214,2.684h-.63Zm1.6,6.1A2.424,2.424,0,0,0,4.316-.736a3.371,3.371,0,0,0,.964-.778,3.83,3.83,0,0,0,.655-1.079,3.191,3.191,0,0,0,.239-1.2,2.746,2.746,0,0,0-.233-1.135,2.027,2.027,0,0,0-.668-.834,1.708,1.708,0,0,0-1.027-.314,2.2,2.2,0,0,0-.712.138,3.448,3.448,0,0,0-.775.389,3.365,3.365,0,0,0-.661.57,1.915,1.915,0,0,0-.4.658L1.235-2.171A2.469,2.469,0,0,0,1.6-1.3a2.009,2.009,0,0,0,.662.627A1.728,1.728,0,0,0,3.15-.441Zm7.056.567a2.412,2.412,0,0,1-1.38-.37A2.3,2.3,0,0,1,8-1.236,3.3,3.3,0,0,1,7.724-2.6a4.024,4.024,0,0,1,.309-1.576A4.184,4.184,0,0,1,8.87-5.46a3.937,3.937,0,0,1,1.216-.866,3.4,3.4,0,0,1,1.43-.314,2.412,2.412,0,0,1,1.386.377,2.286,2.286,0,0,1,.825,1A3.4,3.4,0,0,1,14-3.891a4.018,4.018,0,0,1-.3,1.557,4.19,4.19,0,0,1-.832,1.287,3.824,3.824,0,0,1-1.21.866A3.477,3.477,0,0,1,10.206.126Zm.113-.567a2.64,2.64,0,0,0,1.121-.251,3.188,3.188,0,0,0,.977-.709A3.449,3.449,0,0,0,13.1-2.467a3.424,3.424,0,0,0,.252-1.323,2.9,2.9,0,0,0-.22-1.154,1.917,1.917,0,0,0-.649-.822,1.791,1.791,0,0,0-1.071-.307,2.587,2.587,0,0,0-1.121.257,3.23,3.23,0,0,0-.977.721,3.509,3.509,0,0,0-.687,1.079,3.471,3.471,0,0,0-.252,1.33,2.941,2.941,0,0,0,.214,1.141,1.777,1.777,0,0,0,.649.809A1.876,1.876,0,0,0,10.319-.441Zm5.783-6.1h.6l-.353,1.61A4.213,4.213,0,0,1,17.5-6.08a2.619,2.619,0,0,1,1.285-.459.731.731,0,0,1,.164-.006q.076.006.126.006l-.126.567a2.924,2.924,0,0,0-1.569.522,3.441,3.441,0,0,0-1.166,1.364L15.347,0h-.63ZM19.366-.774q0-.063.006-.139a1.245,1.245,0,0,1,.019-.139l1.058-4.97h-.882l.113-.517h.882l.466-2.243h.63l-.466,2.243h1.449l-.113.517H21.08l-.945,4.466q-.05.216-.069.324a1.091,1.091,0,0,0-.019.184.518.518,0,0,0,.189.438.7.7,0,0,0,.441.146,1.507,1.507,0,0,0,.466-.069,3.957,3.957,0,0,0,.372-.139,1.732,1.732,0,0,0,.2-.095l.076.5a1.513,1.513,0,0,1-.271.145,3.109,3.109,0,0,1-.5.17,2.491,2.491,0,0,1-.63.076,1.124,1.124,0,0,1-.731-.235A.807.807,0,0,1,19.366-.774Zm4.927-5.261h-.869l.113-.517h.882l.038-.214a4.515,4.515,0,0,1,.5-1.38,2.539,2.539,0,0,1,.8-.876,1.838,1.838,0,0,1,1.021-.3,1.9,1.9,0,0,1,.661.113,1.35,1.35,0,0,1,.5.3l-.328.454a.8.8,0,0,0-.359-.233,1.453,1.453,0,0,0-.485-.082,1.323,1.323,0,0,0-1.04.51,3.3,3.3,0,0,0-.636,1.481l-.038.227H26.8l-.113.517H24.923l-1.84,8.719h-.63ZM29.169.126a2.412,2.412,0,0,1-1.38-.37,2.3,2.3,0,0,1-.825-.992A3.3,3.3,0,0,1,26.687-2.6,4.024,4.024,0,0,1,27-4.174a4.184,4.184,0,0,1,.838-1.287,3.937,3.937,0,0,1,1.216-.866,3.4,3.4,0,0,1,1.43-.314,2.412,2.412,0,0,1,1.386.377,2.286,2.286,0,0,1,.825,1,3.4,3.4,0,0,1,.271,1.375,4.018,4.018,0,0,1-.3,1.557,4.19,4.19,0,0,1-.832,1.287,3.824,3.824,0,0,1-1.21.866A3.477,3.477,0,0,1,29.169.126Zm.113-.567A2.64,2.64,0,0,0,30.4-.692,3.188,3.188,0,0,0,31.38-1.4a3.449,3.449,0,0,0,.687-1.066,3.424,3.424,0,0,0,.252-1.323A2.9,2.9,0,0,0,32.1-4.944a1.916,1.916,0,0,0-.649-.822,1.791,1.791,0,0,0-1.071-.307,2.587,2.587,0,0,0-1.121.257,3.23,3.23,0,0,0-.977.721,3.509,3.509,0,0,0-.687,1.079,3.471,3.471,0,0,0-.252,1.33,2.941,2.941,0,0,0,.214,1.141,1.777,1.777,0,0,0,.649.809A1.876,1.876,0,0,0,29.282-.441Zm5.544.567a.914.914,0,0,1-.668-.234.854.854,0,0,1-.239-.64,1.048,1.048,0,0,1,.013-.158q.013-.082.025-.158L35.671-9.2h.63L34.625-1.252q-.013.063-.019.114a.932.932,0,0,0-.006.114q0,.57.617.57a1.7,1.7,0,0,0,.328-.038A3.606,3.606,0,0,0,35.9-.58v.5a3.941,3.941,0,0,1-.529.139A2.825,2.825,0,0,1,34.826.126ZM38.2-6.539h.63L37.447,0h-.63Zm.567-2.646h.63l-.239,1.159h-.63ZM42.008.126a2.412,2.412,0,0,1-1.38-.37,2.3,2.3,0,0,1-.825-.992A3.3,3.3,0,0,1,39.526-2.6a4.024,4.024,0,0,1,.309-1.576,4.184,4.184,0,0,1,.838-1.287,3.937,3.937,0,0,1,1.216-.866,3.4,3.4,0,0,1,1.43-.314,2.412,2.412,0,0,1,1.386.377,2.286,2.286,0,0,1,.825,1A3.4,3.4,0,0,1,45.8-3.891a4.018,4.018,0,0,1-.3,1.557,4.19,4.19,0,0,1-.832,1.287,3.824,3.824,0,0,1-1.21.866A3.477,3.477,0,0,1,42.008.126Zm.113-.567a2.64,2.64,0,0,0,1.121-.251A3.188,3.188,0,0,0,44.22-1.4a3.45,3.45,0,0,0,.687-1.066,3.424,3.424,0,0,0,.252-1.323,2.9,2.9,0,0,0-.221-1.154,1.917,1.917,0,0,0-.649-.822,1.791,1.791,0,0,0-1.071-.307,2.587,2.587,0,0,0-1.121.257,3.23,3.23,0,0,0-.976.721,3.509,3.509,0,0,0-.687,1.079,3.471,3.471,0,0,0-.252,1.33A2.941,2.941,0,0,0,40.4-1.545a1.777,1.777,0,0,0,.649.809A1.876,1.876,0,0,0,42.122-.441ZM51.66.126a3.521,3.521,0,0,1-1.355-.252,2.31,2.31,0,0,1-.989-.756l.391-.428a2.785,2.785,0,0,0,.907.693,2.616,2.616,0,0,0,1.109.227,2.933,2.933,0,0,0,1.09-.188,1.759,1.759,0,0,0,.75-.539,1.277,1.277,0,0,0,.277-.815.736.736,0,0,0-.441-.715,7.779,7.779,0,0,0-1.26-.439q-.58-.163-.977-.308a1.334,1.334,0,0,1-.592-.383,1,1,0,0,1-.2-.653,1.935,1.935,0,0,1,.372-1.205,2.344,2.344,0,0,1,.989-.747A3.5,3.5,0,0,1,53.1-6.64a2.787,2.787,0,0,1,1.266.258,1.6,1.6,0,0,1,.725.661l-.416.34a1.293,1.293,0,0,0-.655-.561,2.58,2.58,0,0,0-1-.183,2.917,2.917,0,0,0-.97.163,1.718,1.718,0,0,0-.756.5,1.284,1.284,0,0,0-.29.865.648.648,0,0,0,.334.621A4.981,4.981,0,0,0,52.4-3.6a11.248,11.248,0,0,1,1.109.358,1.879,1.879,0,0,1,.718.458,1.075,1.075,0,0,1,.252.753,1.879,1.879,0,0,1-.359,1.142,2.283,2.283,0,0,1-1,.753A3.811,3.811,0,0,1,51.66.126Zm5.216-6.665h.63L56.12,0h-.63Zm.567-2.646h.63l-.239,1.159H57.2ZM58.477-.774q0-.063.006-.139a1.245,1.245,0,0,1,.019-.139l1.058-4.97h-.882l.113-.517h.882l.466-2.243h.63L60.3-6.539h1.449l-.113.517H60.19l-.945,4.466q-.05.216-.069.324a1.091,1.091,0,0,0-.019.184.518.518,0,0,0,.189.438.7.7,0,0,0,.441.146,1.507,1.507,0,0,0,.466-.069,3.957,3.957,0,0,0,.372-.139,1.732,1.732,0,0,0,.2-.095l.076.5a1.513,1.513,0,0,1-.271.145,3.109,3.109,0,0,1-.5.17,2.491,2.491,0,0,1-.63.076,1.124,1.124,0,0,1-.731-.235A.807.807,0,0,1,58.477-.774Zm6.01.9a2.35,2.35,0,0,1-1.342-.377,2.484,2.484,0,0,1-.863-1,3.268,3.268,0,0,1-.315-1.381,3.962,3.962,0,0,1,.258-1.481A4.088,4.088,0,0,1,63.006-5.4a3.828,3.828,0,0,1,1.2-.9,3.408,3.408,0,0,1,1.506-.333,2.79,2.79,0,0,1,1.077.2,1.758,1.758,0,0,1,.769.59,1.705,1.705,0,0,1,.3.992,1.449,1.449,0,0,1-.825,1.419,5.927,5.927,0,0,1-2.577.427q-.428,0-.932-.019T62.383-3.1l.113-.466q.643.038,1.109.057t.882.019a6.933,6.933,0,0,0,1.663-.157,1.634,1.634,0,0,0,.863-.464,1.07,1.07,0,0,0,.246-.746,1.089,1.089,0,0,0-.233-.727,1.378,1.378,0,0,0-.6-.408,2.286,2.286,0,0,0-.781-.132,2.6,2.6,0,0,0-1.229.295,3.149,3.149,0,0,0-.97.79,3.61,3.61,0,0,0-.624,1.1,3.607,3.607,0,0,0-.214,1.217,3.08,3.08,0,0,0,.246,1.186,1.993,1.993,0,0,0,.674.847,1.822,1.822,0,0,0,1.084.314,2.5,2.5,0,0,0,1.323-.359,2.5,2.5,0,0,0,.92-.964l.542.164a3.228,3.228,0,0,1-.718.869,3.293,3.293,0,0,1-1,.586A3.382,3.382,0,0,1,64.487.126Z" transform="translate(8 91)" fill="#fff"/>
    <line class="c-logoSvg__line" x2="69" transform="translate(7.5 77.5)" fill="none" stroke="#fff" stroke-width="1"/>
  </g>
</svg>
